<svg width="49" height="39" viewBox="0 0 49 39" fill="none" xmlns="http://www.w3.org/2000/svg">
<path d="M24.3549 0.0520172C24.2833 0.0844688 24.1791 0.162354 24.1205 0.227253C24.0619 0.298645 21.8345 3.82278 19.1708 8.07381C15.5172 13.8955 14.3254 15.8555 14.3058 16.0307C14.2472 16.5889 14.918 16.9328 15.3413 16.5694C15.4 16.5175 17.4905 13.2075 19.9979 9.20959C22.4988 5.21167 24.5698 1.94065 24.5894 1.94065C24.6219 1.94065 27.989 7.28202 34.6776 17.9713C35.0488 18.5619 35.8563 19.8469 36.4685 20.8269C37.0807 21.8069 38.1097 23.4424 38.7415 24.4614C39.3797 25.4803 40.1157 26.6486 40.3762 27.0574C40.6367 27.4663 41.3726 28.6345 42.0108 29.6535C44.2773 33.275 45.4105 35.0857 45.8989 35.8645C46.1725 36.2994 46.4004 36.6693 46.4004 36.6888C46.4004 36.7147 40.819 36.7277 33.9937 36.7277H21.587V35.0598V33.3918L21.8019 33.593C22.336 34.1057 23.2413 34.5211 24.1595 34.6833C24.8759 34.8066 25.2537 34.8066 25.4881 34.6833C25.8007 34.5276 25.8528 34.1252 25.6119 33.8396C25.4816 33.6968 25.397 33.6644 25.0062 33.6449C23.1175 33.5216 22.0104 32.6714 21.6782 31.0813C21.6261 30.8217 21.5935 30.5946 21.6131 30.5816C21.6261 30.5621 21.815 30.6919 22.0234 30.8606C22.7463 31.4448 23.9576 31.8601 24.9801 31.8601C25.3449 31.8601 25.436 31.8342 25.5858 31.6979C25.944 31.3734 25.7096 30.7633 25.2211 30.7503C23.6776 30.7179 22.4532 30.0753 21.9713 29.0499C21.7564 28.5826 21.587 27.8882 21.587 27.4209V27.1029L21.9713 27.4923C22.6291 28.1672 23.7492 28.8098 24.2572 28.8098C24.5959 28.8098 24.8369 28.4918 24.7782 28.0959C24.7522 27.9141 24.5177 27.7324 24.1661 27.6221C23.352 27.3625 22.5509 26.6356 22.108 25.7399C21.815 25.1493 21.6782 24.5847 21.6131 23.715C21.574 23.2347 21.5414 23.1114 21.4177 22.9881C21.2028 22.774 20.7534 22.7804 20.545 23.0011C20.4147 23.1374 20.3887 23.2607 20.3431 23.8254C20.2845 24.6756 20.1998 25.0195 19.8872 25.6685C19.5681 26.3435 19.0601 26.8627 18.4284 27.1678C18.1809 27.2846 17.9074 27.3819 17.8227 27.3819C17.5947 27.3819 17.2886 27.7194 17.2886 27.9661C17.2886 28.2192 17.5947 28.5502 17.8292 28.5502C18.2851 28.5502 19.3597 28.0115 19.9068 27.5117C20.1412 27.3041 20.3496 27.1418 20.3692 27.1613C20.4213 27.2197 20.3496 27.9531 20.2519 28.3555C19.9068 29.7443 18.9038 30.5232 17.2235 30.6919C16.4355 30.7763 16.3964 30.7893 16.2727 31.0229C16.1424 31.276 16.2075 31.5551 16.4225 31.7303C16.9435 32.1392 19.1708 31.5616 20.0761 30.7893L20.3496 30.5491V30.7373C20.3496 31.3539 19.9068 32.3015 19.4183 32.7428C18.8582 33.2425 17.8878 33.6125 17.1063 33.6125C16.9174 33.6125 16.6634 33.6514 16.5462 33.7033C16.1229 33.8786 16.0968 34.4821 16.5071 34.7028C16.722 34.8196 17.5426 34.7612 18.233 34.5925C18.8452 34.4367 19.7114 34.0213 20.0826 33.6968C20.3887 33.4437 20.4278 33.4762 20.3887 33.937C20.3757 34.0992 20.3626 34.7937 20.3561 35.4751L20.3496 36.7277H15.3348H10.3201V34.547V32.3664L10.6262 32.6389C10.9844 32.9505 11.8245 33.3723 12.3716 33.5151C12.9317 33.6644 13.9346 33.7163 14.1235 33.6125C14.4556 33.4372 14.5077 33.0413 14.2342 32.7623C14.0649 32.6 13.9932 32.574 13.6611 32.574C12.7884 32.5676 11.831 32.2236 11.2514 31.7044C10.8736 31.3604 10.5545 30.8087 10.4243 30.2506C10.3331 29.8482 10.3591 29.7573 10.522 29.952C10.6522 30.1078 11.1211 30.4193 11.5575 30.6335C12.4041 31.0489 13.9411 31.2371 14.2277 30.9515C14.5012 30.6789 14.4426 30.2506 14.117 30.0883C14.0193 30.0364 13.6871 29.978 13.381 29.9585C12.1501 29.8741 11.1537 29.2835 10.6848 28.3684C10.5154 28.031 10.3201 27.3495 10.3201 27.0704C10.3201 26.9276 10.3396 26.9341 10.6327 27.1872C11.3165 27.7973 12.5344 28.2257 13.5634 28.2257C14.0062 28.2257 14.117 28.2062 14.2277 28.0959C14.4035 27.9206 14.4491 27.6805 14.3449 27.4728C14.2277 27.2262 14.0062 27.1223 13.5699 27.1223C13.0814 27.1223 12.2869 26.9147 11.8115 26.6615C11.3556 26.4214 10.9192 25.9671 10.6848 25.5128C10.5154 25.1753 10.3201 24.4938 10.3201 24.2148C10.3201 24.072 10.3396 24.0785 10.6262 24.3316C11.0234 24.6756 11.844 25.0779 12.4953 25.2402C12.9903 25.3635 13.902 25.4154 14.13 25.3311C14.2928 25.2662 14.4361 24.9287 14.3905 24.721C14.3189 24.3965 14.156 24.3186 13.4722 24.2602C11.7919 24.1174 10.7499 23.3191 10.4178 21.9173C10.3656 21.6901 10.3201 21.437 10.3201 21.3591C10.3201 21.2163 10.3396 21.2228 10.6131 21.4629C11.2905 22.0535 12.326 22.443 13.3875 22.4949C14.0323 22.5273 14.0909 22.5208 14.2147 22.3975C14.4035 22.2093 14.4491 21.9757 14.3449 21.7615C14.2277 21.5149 14.0062 21.411 13.5699 21.411C13.114 21.411 12.326 21.2163 11.8831 20.9892C10.8932 20.4894 10.3266 19.451 10.3201 18.14V17.6922L10.828 18.1789C11.6682 18.9967 12.9186 19.7041 13.6415 19.769C13.9672 19.8015 14.1951 19.6587 14.2668 19.3666C14.3514 19.0421 14.1756 18.8734 13.4657 18.5813C12.606 18.2374 12.059 17.8804 11.4989 17.2898C10.789 16.5434 10.3201 15.4077 10.3201 14.4341C10.3201 14.1031 10.1898 13.7916 10.027 13.7267C9.77299 13.6294 9.43433 13.6878 9.27803 13.85C9.15429 13.9863 9.12172 14.1096 9.08265 14.6094C9.03055 15.2908 8.94588 15.6218 8.71794 16.141C8.22297 17.2573 7.18094 18.1465 5.78071 18.6527C5.53323 18.7436 5.29877 18.8669 5.25969 18.9253C5.11641 19.1135 5.15549 19.4899 5.33784 19.6587C5.47461 19.7885 5.53974 19.8015 5.8263 19.769C6.21706 19.7236 7.19396 19.2758 7.78662 18.8734C8.01456 18.7241 8.39881 18.3996 8.6463 18.153C8.88727 17.9128 9.10219 17.7117 9.12824 17.7117C9.19336 17.7117 9.08265 18.7825 8.97844 19.1849C8.77655 19.9702 8.30112 20.5673 7.59775 20.9437C7.11581 21.1968 6.32126 21.411 5.84584 21.411C5.4681 21.411 5.14898 21.5343 5.08385 21.7031C4.99267 21.9432 5.04477 22.2353 5.20759 22.3845C5.35738 22.5208 5.40297 22.5273 6.00214 22.4949C7.0572 22.4365 7.83872 22.1769 8.60071 21.6317L9.08265 21.2877V21.5019C9.08265 22.112 8.58768 23.0855 8.07318 23.4879C7.49355 23.9487 6.56874 24.2667 5.8263 24.2667C5.4681 24.2667 5.14898 24.39 5.08385 24.5587C4.99918 24.7924 5.04477 25.0909 5.19457 25.2272C5.32482 25.344 5.42251 25.37 5.81978 25.37C6.80971 25.37 7.81267 25.052 8.60071 24.4873L9.08265 24.1434V24.3575C9.08265 24.9871 8.54861 26.019 8.02759 26.389C7.38935 26.8368 6.54921 27.1223 5.8263 27.1223C5.4681 27.1223 5.14898 27.2456 5.08385 27.4144C4.99918 27.648 5.04477 27.9466 5.19457 28.0829C5.32482 28.2062 5.42251 28.2257 5.86537 28.2257C6.82274 28.2257 7.89734 27.8687 8.67886 27.2911L9.08265 26.9925V27.2132C9.08265 27.5766 8.83516 28.2516 8.55512 28.6735C8.04713 29.4328 6.92043 29.9715 5.83932 29.978C5.4681 29.978 5.14898 30.1013 5.08385 30.27C4.99918 30.5037 5.04477 30.8022 5.19457 30.9385C5.32482 31.0618 5.42251 31.0813 5.86537 31.0813C6.84228 31.0813 8.02108 30.6854 8.75701 30.1013L9.08916 29.8417L9.04357 30.0883C8.81563 31.3279 7.91687 32.1911 6.56874 32.4767C6.32126 32.5286 5.95655 32.574 5.75466 32.574C5.45507 32.574 5.35738 32.6065 5.2141 32.7363C4.97313 32.9634 4.97313 33.3529 5.22713 33.5476C5.38995 33.6839 5.45507 33.6903 6.02168 33.6579C6.36034 33.6384 6.81623 33.5735 7.03115 33.5151C7.56519 33.3788 8.32717 33.0089 8.73096 32.6974C8.91332 32.5611 9.07613 32.4442 9.08916 32.4442C9.11521 32.4442 9.08265 36.6823 9.0566 36.7147C9.04357 36.7212 7.63031 36.7212 5.90445 36.7147L2.77184 36.6953L3.64454 35.2999C4.35443 34.1771 4.52376 33.8591 4.52376 33.6709C4.52376 33.1841 4.01577 32.8856 3.58593 33.1192C3.30588 33.2685 0.987362 36.9679 0.954798 37.3183C0.922235 37.6169 1.01993 37.7986 1.26741 37.9284C1.43674 38.0128 4.04182 38.0257 24.674 38.0128L47.8983 37.9933L48.0742 37.8181C48.4193 37.4741 48.3672 37.3248 47.3187 35.6569C46.3939 34.1836 45.0914 32.1068 43.1506 29.0045C42.6035 28.1283 41.8676 26.9601 41.5159 26.4084C41.1642 25.8568 40.3566 24.5717 39.7249 23.5528C26.8493 2.99205 25.0388 0.136391 24.8304 0.0649986C24.5959 -0.0193748 24.5373 -0.0193748 24.3549 0.0520172Z" fill="#18333E"/>
</svg>
