<svg width="77" height="60" viewBox="0 0 77 60" fill="none" xmlns="http://www.w3.org/2000/svg">
<g clip-path="url(#clip0_1_433)">
<path fill-rule="evenodd" clip-rule="evenodd" d="M19.42 55.3956C42.343 59.3543 57.8525 49.1631 51.9445 31.6224C52.098 32.2907 52.1773 32.978 52.1773 33.6766C52.1773 40.6133 44.3194 46.2362 34.6253 46.2362C26.6297 46.2362 19.883 42.4119 17.7637 37.179C17.1949 35.7724 15.9408 34.7197 14.0914 34.0931C12.242 33.4664 10.3079 33.4418 8.4268 34.0192L8.38446 34.0325C5.28626 34.9829 3.62207 37.3381 4.38934 39.6875C6.50596 46.1756 11.9774 51.7398 19.4226 55.3956H19.42ZM7.66481 21.2324C11.8981 21.2324 15.3296 23.6879 15.3296 26.7171C15.3296 29.7462 11.8981 32.2017 7.66481 32.2017C3.43157 32.2017 0 29.7462 0 26.7171C0 23.6879 3.43157 21.2324 7.66481 21.2324Z" fill="white"/>
<path fill-rule="evenodd" clip-rule="evenodd" d="M48.0075 50.373C52.881 46.0754 54.6325 39.6119 51.9417 31.6206C52.0952 32.2889 52.1746 32.9762 52.1746 33.6747C52.1746 40.6115 44.3166 46.2344 34.6225 46.2344C26.627 46.2344 19.8802 42.4101 17.761 37.1772C17.1921 35.7705 15.938 34.7179 14.0886 34.0913C12.4218 33.5271 10.6915 33.4514 8.99023 33.8622C13.2446 48.4173 30.3099 54.9697 48.0101 50.3711L48.0075 50.373Z" fill="white"/>
<path fill-rule="evenodd" clip-rule="evenodd" d="M19.4198 55.3957C42.3428 59.3544 57.8524 49.1632 51.9417 31.6206C52.0951 32.2889 52.1745 32.9762 52.1745 33.6747C52.1745 36.117 51.1982 38.3964 49.5129 40.3256C48.4043 50.284 36.7258 56.4086 19.4172 55.3938L19.4198 55.3957Z" fill="white"/>
<path fill-rule="evenodd" clip-rule="evenodd" d="M51.9417 31.6206C57.8524 49.1613 42.3428 59.3544 19.4172 55.3957C25.3331 58.2999 32.4926 60 40.2103 60C60.5272 60 76.9972 48.2147 76.9972 33.6766C76.9972 30.0151 75.9521 26.5297 74.0657 23.3624C72.7507 21.1549 70.5177 19.5911 67.4062 18.6994C64.2948 17.8058 61.1702 17.8323 58.0905 18.7789L57.9555 18.8205C52.1004 20.6172 49.1848 25.3086 51.2406 29.6232C51.5475 30.2669 51.7829 30.9352 51.9417 31.6225V31.6206ZM53.2646 0C60.1674 0 65.7632 4.00416 65.7632 8.94358C65.7632 13.883 60.1674 17.8872 53.2646 17.8872C46.3618 17.8872 40.7659 13.883 40.7659 8.94358C40.7659 4.00416 46.3618 0 53.2646 0Z" fill="white"/>
<path fill-rule="evenodd" clip-rule="evenodd" d="M62.8398 28.4496C58.1753 20.0891 60.62 18.2091 67.409 18.6995C64.2976 17.8059 61.1729 17.8324 58.0933 18.779L57.9583 18.8206C52.1032 20.6173 49.1876 25.3087 51.2433 29.6234C51.5503 30.2671 51.7857 30.9354 51.9445 31.6226C57.8551 49.1633 42.3456 59.3545 19.4226 55.3977C28.749 58.2508 38.1864 58.1391 46.0867 56.0244C61.2629 51.9615 70.7559 40.5018 62.8424 28.4515L62.8398 28.4496Z" fill="white"/>
</g>
<defs>
<clipPath id="clip0_1_433">
<rect width="77" height="60" fill="white"/>
</clipPath>
</defs>
</svg>
