<svg width="280" height="60" viewBox="0 0 280 60" fill="none" xmlns="http://www.w3.org/2000/svg">
<g clip-path="url(#clip0_1_432)">
<path fill-rule="evenodd" clip-rule="evenodd" d="M19.42 55.3956C42.343 59.3543 57.8525 49.1631 51.9445 31.6224C52.098 32.2907 52.1773 32.978 52.1773 33.6766C52.1773 40.6133 44.3194 46.2362 34.6253 46.2362C26.6297 46.2362 19.883 42.4119 17.7637 37.179C17.1949 35.7724 15.9408 34.7197 14.0914 34.0931C12.242 33.4664 10.3079 33.4418 8.42679 34.0192L8.38446 34.0325C5.28626 34.9829 3.62207 37.3381 4.38934 39.6875C6.50596 46.1756 11.9774 51.7398 19.4226 55.3956H19.42ZM7.66481 21.2324C11.8981 21.2324 15.3296 23.6879 15.3296 26.7171C15.3296 29.7462 11.8981 32.2017 7.66481 32.2017C3.43157 32.2017 0 29.7462 0 26.7171C0 23.6879 3.43157 21.2324 7.66481 21.2324Z" fill="white"/>
<path fill-rule="evenodd" clip-rule="evenodd" d="M48.0075 50.373C52.881 46.0754 54.6325 39.6119 51.9418 31.6206C52.0952 32.2889 52.1746 32.9762 52.1746 33.6747C52.1746 40.6115 44.3166 46.2344 34.6225 46.2344C26.627 46.2344 19.8802 42.4101 17.761 37.1772C17.1921 35.7705 15.938 34.7179 14.0886 34.0913C12.4218 33.5271 10.6915 33.4514 8.99023 33.8622C13.2446 48.4173 30.3099 54.9697 48.0101 50.3711L48.0075 50.373Z" fill="white"/>
<path fill-rule="evenodd" clip-rule="evenodd" d="M19.4198 55.3957C42.3428 59.3544 57.8524 49.1632 51.9417 31.6206C52.0951 32.2889 52.1745 32.9762 52.1745 33.6747C52.1745 36.117 51.1982 38.3964 49.5129 40.3256C48.4043 50.284 36.7258 56.4086 19.4172 55.3938L19.4198 55.3957Z" fill="white"/>
<path fill-rule="evenodd" clip-rule="evenodd" d="M51.9417 31.6206C57.8524 49.1613 42.3428 59.3544 19.4172 55.3957C25.3331 58.2999 32.4926 60 40.2103 60C60.5272 60 76.9972 48.2147 76.9972 33.6766C76.9972 30.0151 75.9521 26.5297 74.0657 23.3624C72.7507 21.1549 70.5177 19.5911 67.4062 18.6994C64.2948 17.8058 61.1702 17.8323 58.0905 18.7789L57.9555 18.8205C52.1004 20.6172 49.1848 25.3086 51.2406 29.6232C51.5475 30.2669 51.7829 30.9353 51.9417 31.6225V31.6206ZM53.2646 0C60.1674 0 65.7632 4.00416 65.7632 8.94358C65.7632 13.883 60.1674 17.8872 53.2646 17.8872C46.3618 17.8872 40.7659 13.883 40.7659 8.94358C40.7659 4.00416 46.3618 0 53.2646 0Z" fill="white"/>
<path fill-rule="evenodd" clip-rule="evenodd" d="M62.8398 28.4496C58.1753 20.0891 60.62 18.2091 67.409 18.6995C64.2976 17.8059 61.1729 17.8324 58.0933 18.779L57.9583 18.8206C52.1032 20.6173 49.1876 25.3087 51.2433 29.6234C51.5503 30.2671 51.7857 30.9354 51.9445 31.6226C57.8551 49.1633 42.3456 59.3545 19.4226 55.3977C28.749 58.2508 38.1864 58.1391 46.0867 56.0244C61.2629 51.9615 70.7559 40.5018 62.8424 28.4515L62.8398 28.4496Z" fill="white"/>
</g>
<path d="M96.752 39C101.888 39 105.344 35.496 105.344 30.336C105.344 25.152 101.84 21.648 96.656 21.648H91.016V39H96.752ZM96.488 23.808C100.448 23.808 102.896 26.304 102.896 30.336C102.896 34.32 100.448 36.816 96.584 36.816H93.368V23.808H96.488ZM113.016 39.288C115.92 39.288 117.888 37.872 118.464 35.352H116.352C115.968 36.696 114.816 37.416 113.064 37.416C110.832 37.416 109.536 36.048 109.368 33.576L118.44 33.552V32.712C118.44 29.232 116.256 26.928 112.92 26.928C109.512 26.928 107.184 29.472 107.184 33.144C107.184 36.792 109.56 39.288 113.016 39.288ZM112.92 28.824C114.912 28.824 116.184 30.12 116.184 32.064H109.416C109.704 30 110.952 28.824 112.92 28.824ZM120 35.592C120 37.824 121.752 39.288 124.512 39.288C127.296 39.288 129.216 37.872 129.216 35.64C129.216 33.888 128.232 32.976 126.24 32.496L124.176 31.992C123.024 31.704 122.448 31.176 122.448 30.384C122.448 29.304 123.24 28.68 124.656 28.68C126.024 28.68 126.816 29.424 126.864 30.6H129.024C128.976 28.368 127.296 26.928 124.728 26.928C122.136 26.928 120.312 28.296 120.312 30.456C120.312 32.184 121.296 33.216 123.384 33.72L125.448 34.2C126.672 34.512 127.056 34.992 127.056 35.784C127.056 36.864 126.144 37.512 124.56 37.512C123.072 37.512 122.16 36.792 122.16 35.592H120ZM132.822 24.48C133.638 24.48 134.31 23.808 134.31 22.992C134.31 22.152 133.638 21.504 132.822 21.504C132.006 21.504 131.334 22.152 131.334 22.992C131.334 23.808 132.006 24.48 132.822 24.48ZM131.718 39H133.974V27.264H131.718V39ZM136.505 32.832C136.505 36.12 138.617 38.688 141.953 38.688C143.801 38.688 145.337 37.872 146.105 36.504V38.856C146.105 41.088 144.665 42.528 142.457 42.528C140.489 42.528 139.193 41.52 138.905 39.792H136.649C137.081 42.768 139.265 44.568 142.457 44.568C146.057 44.568 148.337 42.216 148.337 38.52V27.264H146.321L146.153 29.256C145.409 27.792 143.945 26.928 142.049 26.928C138.641 26.928 136.505 29.52 136.505 32.832ZM138.761 32.784C138.761 30.624 140.105 28.896 142.361 28.896C144.665 28.896 146.009 30.528 146.009 32.784C146.009 35.088 144.617 36.72 142.337 36.72C140.129 36.72 138.761 34.992 138.761 32.784ZM153.849 39V32.784C153.849 30.504 155.073 28.992 157.185 28.992C158.913 28.992 160.017 29.952 160.017 32.328V39H162.273V31.824C162.273 28.824 160.857 26.928 157.761 26.928C156.105 26.928 154.617 27.72 153.873 29.064L153.633 27.264H151.593V39H153.849ZM170.462 39.288C173.366 39.288 175.334 37.872 175.91 35.352H173.798C173.414 36.696 172.262 37.416 170.51 37.416C168.278 37.416 166.982 36.048 166.814 33.576L175.886 33.552V32.712C175.886 29.232 173.702 26.928 170.366 26.928C166.958 26.928 164.63 29.472 164.63 33.144C164.63 36.792 167.006 39.288 170.462 39.288ZM170.366 28.824C172.358 28.824 173.63 30.12 173.63 32.064H166.862C167.15 30 168.398 28.824 170.366 28.824ZM185.125 27.168C184.669 27.072 184.333 27.024 183.925 27.024C182.317 27.024 181.141 27.84 180.661 29.064L180.517 27.288H178.405V39H180.661V32.784C180.661 30.528 181.981 29.232 184.117 29.232H185.125V27.168ZM197.577 39V34.032C197.577 32.088 197.553 30.6 197.337 29.28L201.081 39H204.633L208.401 29.28C208.209 30.6 208.209 31.44 208.209 35.28V39H211.977V21.24H208.161L202.857 34.488L197.577 21.24H193.809V39H197.577ZM220.788 39.312C224.076 39.312 226.452 37.608 226.884 34.944H223.5C223.236 35.808 222.252 36.312 220.86 36.312C219.228 36.312 218.34 35.568 218.124 33.984L226.836 33.936V33C226.836 29.088 224.484 26.616 220.716 26.616C217.092 26.616 214.572 29.232 214.572 32.976C214.572 36.672 217.164 39.312 220.788 39.312ZM220.74 29.616C222.228 29.616 223.164 30.432 223.164 31.704H218.172C218.46 30.264 219.276 29.616 220.74 29.616ZM234.593 39.312C237.881 39.312 240.257 37.608 240.689 34.944H237.305C237.041 35.808 236.057 36.312 234.665 36.312C233.033 36.312 232.145 35.568 231.929 33.984L240.641 33.936V33C240.641 29.088 238.289 26.616 234.521 26.616C230.897 26.616 228.377 29.232 228.377 32.976C228.377 36.672 230.969 39.312 234.593 39.312ZM234.545 29.616C236.033 29.616 236.969 30.432 236.969 31.704H231.977C232.265 30.264 233.081 29.616 234.545 29.616ZM247.56 39V30.072H249.84V27H247.56V23.28H243.864V27H241.584V30.072H243.864V39H247.56ZM259.469 27V33.24C259.469 35.208 258.821 36.024 257.237 36.024C255.725 36.024 255.053 35.16 255.053 33.192V27H251.357V34.536C251.357 37.488 253.037 39.312 255.773 39.312C257.213 39.312 258.701 38.64 259.445 37.656L259.685 39H263.165V27H259.469ZM265.939 44.76H269.635V37.8C270.331 38.712 271.867 39.336 273.523 39.336C277.099 39.336 279.163 36.6 279.163 32.808C279.163 28.944 276.835 26.616 273.499 26.616C271.795 26.616 270.283 27.36 269.611 28.464L269.419 27H265.939V44.76ZM269.659 33C269.659 31.2 270.859 30 272.587 30C274.339 30 275.443 31.224 275.443 33C275.443 34.776 274.339 36 272.587 36C270.859 36 269.659 34.8 269.659 33Z" fill="white"/>
<defs>
<clipPath id="clip0_1_432">
<rect width="77" height="60" fill="white"/>
</clipPath>
</defs>
</svg>
