<svg width="480" height="48" viewBox="0 0 480 48" fill="none" xmlns="http://www.w3.org/2000/svg">
<path d="M1.64 34.24C1.224 34.24 0.888 34.176 0.632 34.048C0.408 33.952 0.296 33.824 0.296 33.664C0.296 33.376 0.44 33.184 0.728 33.088C1.048 32.96 1.256 32.88 1.352 32.848C2.6 32.592 3.56 32.224 4.232 31.744C4.904 31.232 5.24 30.448 5.24 29.392V7.12C5.24 6.352 5.16 5.792 5 5.44C4.84 5.056 4.552 4.784 4.136 4.624C3.72 4.432 3.112 4.272 2.312 4.144C1.256 3.952 0.728 3.632 0.728 3.184C0.728 2.992 0.856 2.864 1.112 2.8C1.368 2.704 1.704 2.656 2.12 2.656C2.984 2.656 3.672 2.672 4.184 2.704C4.728 2.736 5.24 2.768 5.72 2.8C6.2 2.8 6.792 2.8 7.496 2.8C8.296 2.8 8.984 2.8 9.56 2.8C10.136 2.768 10.728 2.736 11.336 2.704C11.944 2.672 12.68 2.656 13.544 2.656C13.96 2.656 14.296 2.704 14.552 2.8C14.808 2.864 14.936 2.992 14.936 3.184C14.936 3.408 14.808 3.6 14.552 3.76C14.296 3.92 13.896 4.048 13.352 4.144C12.168 4.368 11.16 4.64 10.328 4.96C9.496 5.248 9.08 5.856 9.08 6.784V29.392C9.08 30.384 9.304 31.12 9.752 31.6C10.2 32.08 11.208 32.32 12.776 32.32H18.728C19.592 32.32 20.344 32.192 20.984 31.936C21.656 31.648 22.152 31.36 22.472 31.072C23.112 30.528 23.576 30.048 23.864 29.632C24.184 29.184 24.552 28.528 24.968 27.664C25.032 27.472 25.16 27.184 25.352 26.8C25.576 26.416 25.8 26.224 26.024 26.224C26.216 26.224 26.36 26.32 26.456 26.512C26.552 26.704 26.6 26.896 26.6 27.088C26.6 27.12 26.584 27.168 26.552 27.232C26.552 27.264 26.552 27.296 26.552 27.328C26.328 28.16 26.12 28.912 25.928 29.584C25.768 30.256 25.624 30.896 25.496 31.504C25.4 32.112 25.32 32.752 25.256 33.424C25.224 33.648 25.16 33.84 25.064 34C25 34.16 24.84 34.24 24.584 34.24C22.984 34.24 21.448 34.224 19.976 34.192C18.504 34.16 17.08 34.128 15.704 34.096C14.36 34.096 13.064 34.08 11.816 34.048C10.568 34.016 9.336 34 8.12 34C7.32 34 6.408 34.016 5.384 34.048C4.392 34.08 3.512 34.112 2.744 34.144C2.008 34.208 1.64 34.24 1.64 34.24ZM47.7993 34.912C47.5753 34.912 47.4633 34.784 47.4633 34.528C47.4633 34.208 47.4953 33.744 47.5593 33.136C47.6553 32.496 47.7033 31.968 47.7033 31.552C47.7033 31.488 47.7033 31.44 47.7033 31.408C47.7033 31.344 47.7033 31.296 47.7033 31.264C46.4553 32.48 45.1913 33.36 43.9113 33.904C42.6633 34.416 41.2873 34.672 39.7833 34.672C38.7593 34.672 37.8313 34.448 36.9993 34C36.1673 33.584 35.5113 32.96 35.0313 32.128C34.5513 31.264 34.3113 30.208 34.3113 28.96V19.216C34.3113 18.512 34.1513 17.952 33.8313 17.536C33.5113 17.12 32.9833 16.768 32.2473 16.48C32.0873 16.416 31.9433 16.336 31.8153 16.24C31.6873 16.144 31.6233 15.968 31.6233 15.712C31.6233 15.424 31.6873 15.232 31.8153 15.136C31.9753 15.04 32.1513 14.976 32.3433 14.944C33.4313 14.88 34.2633 14.8 34.8393 14.704C35.4473 14.576 36.1993 14.4 37.0953 14.176C37.1913 14.144 37.2553 14.128 37.2873 14.128C37.3513 14.128 37.4153 14.128 37.4793 14.128C37.8313 14.128 37.9913 14.352 37.9593 14.8C37.8633 15.536 37.7833 16.16 37.7193 16.672C37.6873 17.152 37.6713 17.76 37.6713 18.496V27.856C37.6713 28.624 37.8633 29.344 38.2473 30.016C38.6313 30.656 39.1273 31.184 39.7353 31.6C40.3753 32.016 41.0313 32.224 41.7033 32.224C42.5353 32.224 43.2553 32.176 43.8633 32.08C44.5033 31.984 45.1273 31.712 45.7353 31.264C46.0873 31.008 46.5353 30.592 47.0793 30.016C47.6233 29.44 47.8953 28.656 47.8953 27.664V18.88C47.8953 18.208 47.6873 17.712 47.2713 17.392C46.8873 17.04 46.4393 16.8 45.9273 16.672C45.4153 16.544 44.9993 16.48 44.6793 16.48C44.3913 16.48 44.1513 16.432 43.9593 16.336C43.7673 16.208 43.6713 15.984 43.6713 15.664C43.6713 15.376 43.7673 15.184 43.9593 15.088C44.1833 14.992 44.4233 14.944 44.6793 14.944C45.6713 14.912 46.4873 14.88 47.1273 14.848C47.7993 14.784 48.3913 14.704 48.9033 14.608C49.4473 14.48 50.0073 14.336 50.5833 14.176C50.6473 14.144 50.7273 14.128 50.8233 14.128C50.9193 14.096 50.9993 14.08 51.0633 14.08C51.4793 14.08 51.6873 14.256 51.6873 14.608C51.6873 14.64 51.6713 14.704 51.6393 14.8C51.6393 14.864 51.6233 14.944 51.5913 15.04C51.5593 15.136 51.5113 15.408 51.4473 15.856C51.4153 16.304 51.3673 16.768 51.3033 17.248C51.2713 17.728 51.2553 18.096 51.2553 18.352V29.44C51.2553 30.304 51.3353 30.928 51.4953 31.312C51.6873 31.664 51.8953 31.84 52.1193 31.84C52.3753 31.84 52.7433 31.824 53.2233 31.792C53.7353 31.728 54.1033 31.696 54.3273 31.696C54.4873 31.696 54.6473 31.728 54.8073 31.792C54.9673 31.856 55.0473 32.032 55.0473 32.32C55.0473 32.576 54.9833 32.752 54.8553 32.848C54.7273 32.912 54.5673 32.96 54.3753 32.992C53.1273 33.152 52.0553 33.392 51.1593 33.712C50.2633 34.032 49.4633 34.336 48.7593 34.624C48.6633 34.656 48.5193 34.704 48.3273 34.768C48.1353 34.864 47.9593 34.912 47.7993 34.912ZM60.1838 34.192C59.9918 34.192 59.7838 34.16 59.5598 34.096C59.3358 34.064 59.2238 33.952 59.2238 33.76C59.2238 33.504 59.3358 33.312 59.5598 33.184C59.8158 33.056 60.0718 32.96 60.3278 32.896C60.8078 32.736 61.2878 32.48 61.7678 32.128C62.2798 31.744 62.8718 31.088 63.5438 30.16L67.2398 25.024C67.4638 24.768 67.5598 24.576 67.5278 24.448C67.5278 24.288 67.4638 24.112 67.3358 23.92L63.3998 17.92C63.0158 17.28 62.6638 16.816 62.3438 16.528C62.0558 16.24 61.6718 16.032 61.1918 15.904C60.9358 15.84 60.6798 15.744 60.4238 15.616C60.1998 15.488 60.0878 15.296 60.0878 15.04C60.0878 14.784 60.2318 14.656 60.5198 14.656C60.8398 14.624 61.0638 14.608 61.1918 14.608C61.8318 14.608 62.2638 14.624 62.4878 14.656C62.7438 14.688 63.0318 14.72 63.3518 14.752C63.6718 14.784 64.2158 14.8 64.9838 14.8C65.5598 14.8 65.9758 14.784 66.2318 14.752C66.4878 14.72 66.8878 14.704 67.4318 14.704C67.5598 14.704 67.7678 14.72 68.0558 14.752C68.3758 14.752 68.5358 14.88 68.5358 15.136C68.5358 15.328 68.4398 15.472 68.2478 15.568C68.0878 15.664 67.8958 15.744 67.6718 15.808C67.4478 15.872 67.2238 15.968 66.9998 16.096C66.7758 16.192 66.6638 16.368 66.6638 16.624C66.6638 16.784 66.7118 17.008 66.8078 17.296C66.9358 17.552 67.0958 17.84 67.2878 18.16L69.4958 21.472C69.6238 21.696 69.7678 21.696 69.9278 21.472L72.3758 17.776C72.5038 17.616 72.5998 17.44 72.6638 17.248C72.7278 17.056 72.7598 16.88 72.7598 16.72C72.7598 16.336 72.5518 16.08 72.1358 15.952C71.8798 15.856 71.6238 15.744 71.3678 15.616C71.1438 15.488 71.0318 15.312 71.0318 15.088C71.0318 14.832 71.1758 14.704 71.4638 14.704C71.7838 14.672 72.0078 14.656 72.1358 14.656C72.3918 14.656 72.7598 14.688 73.2398 14.752C73.7198 14.784 74.1518 14.8 74.5358 14.8C75.4318 14.8 76.0558 14.768 76.4078 14.704C76.7598 14.608 77.1438 14.56 77.5598 14.56C77.7518 14.56 77.9598 14.592 78.1838 14.656C78.4078 14.688 78.5198 14.8 78.5198 14.992C78.5198 15.216 78.3918 15.392 78.1358 15.52C77.9118 15.648 77.6718 15.76 77.4158 15.856C76.9358 15.984 76.3598 16.24 75.6878 16.624C75.0158 16.976 74.4558 17.472 74.0078 18.112L70.9838 22.672C70.9518 22.736 70.9198 22.832 70.8878 22.96C70.8878 23.056 70.9358 23.168 71.0318 23.296L75.6878 30.88C76.0718 31.488 76.4398 31.936 76.7918 32.224C77.1438 32.512 77.5598 32.736 78.0398 32.896C78.2958 32.96 78.5358 33.056 78.7598 33.184C79.0158 33.312 79.1438 33.504 79.1438 33.76C79.1438 33.952 79.0318 34.064 78.8078 34.096C78.5838 34.16 78.3758 34.192 78.1838 34.192C77.5438 34.192 77.0798 34.176 76.7918 34.144C76.5038 34.112 76.1838 34.08 75.8318 34.048C75.5118 34.016 74.9518 34 74.1518 34C73.5758 34 72.9838 34.016 72.3758 34.048C71.7678 34.08 71.1918 34.096 70.6478 34.096C69.9118 34.096 69.5438 33.936 69.5438 33.616C69.5438 33.328 69.6398 33.12 69.8318 32.992C70.0558 32.864 70.3598 32.752 70.7438 32.656C71.0958 32.56 71.3998 32.432 71.6558 32.272C71.9438 32.08 72.0878 31.824 72.0878 31.504C72.0878 31.376 72.0558 31.248 71.9918 31.12C71.9598 30.96 71.8958 30.8 71.7998 30.64L68.9678 26.032C68.8718 25.936 68.7758 25.936 68.6798 26.032L65.5118 30.784C65.4798 30.848 65.4318 30.976 65.3678 31.168C65.3038 31.328 65.2718 31.504 65.2718 31.696C65.2718 31.92 65.3198 32.144 65.4158 32.368C65.5438 32.56 65.7198 32.688 65.9438 32.752C66.1998 32.848 66.4398 32.96 66.6638 33.088C66.9198 33.184 67.0478 33.36 67.0478 33.616C67.0478 33.84 66.8878 33.968 66.5678 34C66.2798 34.032 66.0718 34.048 65.9438 34.048C65.6878 34.048 65.2878 34.032 64.7438 34C64.2318 33.968 63.7838 33.952 63.3998 33.952C62.5038 33.952 61.8478 33.984 61.4318 34.048C61.0478 34.144 60.6318 34.192 60.1838 34.192ZM100.137 34.912C99.9127 34.912 99.8007 34.784 99.8007 34.528C99.8007 34.208 99.8327 33.744 99.8967 33.136C99.9927 32.496 100.041 31.968 100.041 31.552C100.041 31.488 100.041 31.44 100.041 31.408C100.041 31.344 100.041 31.296 100.041 31.264C98.7927 32.48 97.5287 33.36 96.2487 33.904C95.0007 34.416 93.6247 34.672 92.1207 34.672C91.0967 34.672 90.1687 34.448 89.3367 34C88.5047 33.584 87.8487 32.96 87.3687 32.128C86.8887 31.264 86.6487 30.208 86.6487 28.96V19.216C86.6487 18.512 86.4887 17.952 86.1687 17.536C85.8487 17.12 85.3207 16.768 84.5847 16.48C84.4247 16.416 84.2807 16.336 84.1527 16.24C84.0247 16.144 83.9607 15.968 83.9607 15.712C83.9607 15.424 84.0247 15.232 84.1527 15.136C84.3127 15.04 84.4887 14.976 84.6807 14.944C85.7687 14.88 86.6007 14.8 87.1767 14.704C87.7847 14.576 88.5367 14.4 89.4327 14.176C89.5287 14.144 89.5927 14.128 89.6247 14.128C89.6887 14.128 89.7527 14.128 89.8167 14.128C90.1687 14.128 90.3287 14.352 90.2967 14.8C90.2007 15.536 90.1207 16.16 90.0567 16.672C90.0247 17.152 90.0087 17.76 90.0087 18.496V27.856C90.0087 28.624 90.2007 29.344 90.5847 30.016C90.9687 30.656 91.4647 31.184 92.0727 31.6C92.7127 32.016 93.3687 32.224 94.0407 32.224C94.8727 32.224 95.5927 32.176 96.2007 32.08C96.8407 31.984 97.4647 31.712 98.0727 31.264C98.4247 31.008 98.8727 30.592 99.4167 30.016C99.9607 29.44 100.233 28.656 100.233 27.664V18.88C100.233 18.208 100.025 17.712 99.6087 17.392C99.2247 17.04 98.7767 16.8 98.2647 16.672C97.7527 16.544 97.3367 16.48 97.0167 16.48C96.7287 16.48 96.4887 16.432 96.2967 16.336C96.1047 16.208 96.0087 15.984 96.0087 15.664C96.0087 15.376 96.1047 15.184 96.2967 15.088C96.5207 14.992 96.7607 14.944 97.0167 14.944C98.0087 14.912 98.8247 14.88 99.4647 14.848C100.137 14.784 100.729 14.704 101.241 14.608C101.785 14.48 102.345 14.336 102.921 14.176C102.985 14.144 103.065 14.128 103.161 14.128C103.257 14.096 103.337 14.08 103.401 14.08C103.817 14.08 104.025 14.256 104.025 14.608C104.025 14.64 104.009 14.704 103.977 14.8C103.977 14.864 103.961 14.944 103.929 15.04C103.897 15.136 103.849 15.408 103.785 15.856C103.753 16.304 103.705 16.768 103.641 17.248C103.609 17.728 103.593 18.096 103.593 18.352V29.44C103.593 30.304 103.673 30.928 103.833 31.312C104.025 31.664 104.233 31.84 104.457 31.84C104.713 31.84 105.081 31.824 105.561 31.792C106.073 31.728 106.441 31.696 106.665 31.696C106.825 31.696 106.985 31.728 107.145 31.792C107.305 31.856 107.385 32.032 107.385 32.32C107.385 32.576 107.321 32.752 107.193 32.848C107.065 32.912 106.905 32.96 106.713 32.992C105.465 33.152 104.393 33.392 103.497 33.712C102.601 34.032 101.801 34.336 101.097 34.624C101.001 34.656 100.857 34.704 100.665 34.768C100.473 34.864 100.297 34.912 100.137 34.912ZM113.433 34.144C113.113 34.144 112.873 34.096 112.713 34C112.553 33.936 112.473 33.808 112.473 33.616C112.473 33.36 112.569 33.2 112.761 33.136C112.953 33.04 113.225 32.944 113.577 32.848C114.185 32.688 114.633 32.464 114.921 32.176C115.241 31.856 115.401 31.472 115.401 31.024V20.704C115.401 19.84 115.273 19.088 115.017 18.448C114.761 17.808 114.233 17.408 113.433 17.248C113.305 17.216 113.193 17.136 113.097 17.008C113.001 16.88 112.953 16.752 112.953 16.624C112.953 16.304 113.097 16.112 113.385 16.048C114.217 15.792 115.081 15.424 115.977 14.944C116.905 14.432 117.625 14.016 118.137 13.696C118.329 13.568 118.473 13.488 118.569 13.456C118.697 13.392 118.793 13.36 118.857 13.36C119.017 13.36 119.097 13.472 119.097 13.696C119.097 13.792 119.081 14.032 119.049 14.416C119.049 14.8 119.033 15.248 119.001 15.76C119.001 16.272 118.985 16.784 118.953 17.296C118.953 17.36 118.985 17.392 119.049 17.392C119.561 16.752 120.121 16.192 120.729 15.712C121.369 15.232 122.009 14.848 122.649 14.56C123.321 14.272 123.961 14.128 124.569 14.128C125.241 14.128 125.785 14.272 126.201 14.56C126.649 14.848 126.873 15.216 126.873 15.664C126.873 15.984 126.777 16.336 126.585 16.72C126.425 17.104 126.201 17.44 125.913 17.728C125.625 18.016 125.321 18.16 125.001 18.16C124.809 18.16 124.601 18.128 124.377 18.064C124.153 17.968 123.913 17.856 123.657 17.728C123.401 17.632 123.145 17.536 122.889 17.44C122.633 17.344 122.377 17.296 122.121 17.296C121.353 17.296 120.601 17.568 119.865 18.112C119.161 18.656 118.809 19.728 118.809 21.328V31.024C118.809 31.44 119.033 31.792 119.481 32.08C119.929 32.336 120.553 32.592 121.353 32.848C121.705 32.944 121.977 33.04 122.169 33.136C122.361 33.232 122.457 33.392 122.457 33.616C122.457 33.968 122.137 34.144 121.497 34.144C120.537 34.144 119.801 34.096 119.289 34C118.809 33.936 118.153 33.904 117.321 33.904C116.777 33.904 116.329 33.92 115.977 33.952C115.657 33.984 115.305 34.016 114.921 34.048C114.569 34.112 114.073 34.144 113.433 34.144ZM133.385 47.68C132.777 47.68 132.217 47.52 131.705 47.2C131.193 46.912 130.937 46.416 130.937 45.712C130.937 45.136 131.065 44.624 131.321 44.176C131.609 43.76 132.009 43.552 132.521 43.552C132.873 43.552 133.209 43.6 133.529 43.696C133.881 43.792 134.185 43.84 134.441 43.84C134.633 43.84 134.793 43.792 134.921 43.696C135.081 43.632 135.225 43.504 135.353 43.312C135.705 42.736 136.105 42.016 136.553 41.152C137.033 40.288 137.513 39.312 137.993 38.224C138.505 37.136 138.985 35.984 139.433 34.768C139.529 34.48 139.577 34.112 139.577 33.664C139.577 33.408 139.561 33.168 139.529 32.944C139.497 32.688 139.449 32.464 139.385 32.272L133.817 18.208C133.593 17.632 133.289 17.136 132.905 16.72C132.553 16.272 132.137 15.984 131.657 15.856C131.401 15.76 131.145 15.648 130.889 15.52C130.665 15.392 130.553 15.216 130.553 14.992C130.553 14.8 130.665 14.688 130.889 14.656C131.145 14.592 131.353 14.56 131.513 14.56C132.153 14.56 132.617 14.576 132.905 14.608C133.225 14.64 133.513 14.688 133.769 14.752C134.057 14.784 134.473 14.8 135.017 14.8C135.593 14.8 136.025 14.784 136.312 14.752C136.601 14.688 136.905 14.64 137.225 14.608C137.545 14.576 138.025 14.56 138.665 14.56C138.857 14.56 139.065 14.608 139.289 14.704C139.513 14.768 139.625 14.896 139.625 15.088C139.625 15.312 139.449 15.536 139.097 15.76C138.777 15.952 138.489 16.08 138.233 16.144C137.913 16.24 137.673 16.416 137.513 16.672C137.353 16.896 137.273 17.232 137.273 17.68C137.273 17.872 137.321 18.112 137.417 18.4C137.513 18.656 137.593 18.864 137.657 19.024L141.545 28.624C141.609 28.816 141.705 28.912 141.833 28.912C141.929 28.912 142.009 28.816 142.073 28.624L145.385 19.84C145.481 19.616 145.561 19.328 145.625 18.976C145.721 18.592 145.769 18.288 145.769 18.064C145.769 17.456 145.673 17.04 145.481 16.816C145.321 16.56 145.097 16.368 144.809 16.24C144.553 16.112 144.249 15.952 143.897 15.76C143.577 15.536 143.417 15.312 143.417 15.088C143.417 14.896 143.529 14.768 143.753 14.704C144.009 14.608 144.217 14.56 144.377 14.56C144.825 14.56 145.273 14.608 145.721 14.704C146.201 14.768 146.889 14.8 147.785 14.8C148.393 14.8 148.825 14.784 149.081 14.752C149.369 14.688 149.609 14.64 149.801 14.608C149.993 14.576 150.265 14.56 150.617 14.56C150.777 14.56 150.969 14.592 151.193 14.656C151.449 14.688 151.577 14.8 151.577 14.992C151.577 15.216 151.449 15.392 151.193 15.52C150.969 15.648 150.729 15.76 150.473 15.856C149.993 15.984 149.481 16.368 148.937 17.008C148.393 17.616 147.961 18.304 147.641 19.072L141.113 34.624C141.081 34.72 140.905 35.136 140.585 35.872C140.297 36.608 139.929 37.52 139.481 38.608C139.033 39.696 138.537 40.864 137.993 42.112C137.481 43.36 136.985 44.56 136.505 45.712C136.217 46.352 135.801 46.832 135.257 47.152C134.713 47.504 134.089 47.68 133.385 47.68ZM178.217 35.104C178.153 35.104 178.089 35.072 178.025 35.008C177.961 34.944 177.913 34.864 177.881 34.768L171.209 18.208C170.985 17.568 170.633 17.056 170.153 16.672C169.673 16.256 169.193 15.984 168.713 15.856C168.457 15.76 168.201 15.648 167.945 15.52C167.721 15.392 167.609 15.216 167.609 14.992C167.609 14.8 167.721 14.688 167.945 14.656C168.201 14.592 168.409 14.56 168.569 14.56C168.985 14.56 169.369 14.576 169.721 14.608C170.105 14.64 170.489 14.688 170.873 14.752C171.257 14.784 171.657 14.8 172.073 14.8C172.521 14.8 172.969 14.784 173.417 14.752C173.865 14.688 174.297 14.64 174.713 14.608C175.161 14.576 175.609 14.56 176.057 14.56C176.185 14.56 176.377 14.592 176.633 14.656C176.889 14.688 177.017 14.8 177.017 14.992C177.017 15.216 176.889 15.392 176.633 15.52C176.409 15.648 176.169 15.76 175.913 15.856C175.593 15.952 175.337 16.192 175.145 16.576C174.985 16.928 174.905 17.328 174.905 17.776C174.905 18.192 174.985 18.608 175.145 19.024L178.889 28.672C178.921 28.8 179.001 28.864 179.129 28.864C179.257 28.864 179.337 28.8 179.369 28.672L182.633 20.896C182.793 20.48 182.889 20.08 182.921 19.696C182.985 19.312 183.017 18.944 183.017 18.592C183.017 17.888 182.745 17.312 182.201 16.864C181.657 16.416 181.113 16.08 180.569 15.856C180.313 15.76 180.057 15.648 179.801 15.52C179.577 15.392 179.465 15.216 179.465 14.992C179.465 14.8 179.577 14.688 179.801 14.656C180.025 14.592 180.233 14.56 180.425 14.56C180.873 14.56 181.353 14.608 181.865 14.704C182.409 14.768 183.129 14.8 184.025 14.8C184.921 14.8 185.689 14.768 186.329 14.704C186.969 14.608 187.545 14.56 188.057 14.56C188.217 14.56 188.409 14.592 188.633 14.656C188.889 14.688 189.017 14.8 189.017 14.992C189.017 15.216 188.889 15.392 188.633 15.52C188.409 15.648 188.169 15.76 187.913 15.856C187.561 15.984 187.193 16.16 186.809 16.384C186.457 16.608 186.281 17.008 186.281 17.584C186.281 17.776 186.297 18 186.329 18.256C186.393 18.48 186.489 18.736 186.617 19.024L190.217 28.288C190.377 28.64 190.505 28.816 190.601 28.816C190.729 28.816 190.857 28.656 190.985 28.336L194.633 19.84C194.761 19.584 194.841 19.264 194.873 18.88C194.937 18.496 194.969 18.192 194.969 17.968C194.969 17.392 194.777 16.928 194.393 16.576C194.009 16.224 193.641 15.984 193.289 15.856C193.033 15.76 192.777 15.648 192.521 15.52C192.297 15.392 192.185 15.216 192.185 14.992C192.185 14.8 192.297 14.688 192.521 14.656C192.777 14.592 192.985 14.56 193.145 14.56C193.849 14.56 194.409 14.608 194.825 14.704C195.241 14.768 195.881 14.8 196.745 14.8C197.353 14.8 197.785 14.784 198.041 14.752C198.297 14.688 198.521 14.64 198.713 14.608C198.905 14.576 199.177 14.56 199.529 14.56C199.721 14.56 199.929 14.592 200.153 14.656C200.377 14.688 200.489 14.8 200.489 14.992C200.489 15.216 200.361 15.392 200.105 15.52C199.881 15.648 199.641 15.76 199.385 15.856C198.905 15.984 198.441 16.368 197.993 17.008C197.545 17.616 197.161 18.288 196.841 19.024L190.265 34.768C190.169 34.992 190.025 35.104 189.833 35.104C189.705 35.104 189.577 34.992 189.449 34.768L184.457 22.384C184.361 22.128 184.265 21.984 184.169 21.952C184.073 21.952 183.961 22.112 183.833 22.432L178.601 34.768C178.505 34.992 178.377 35.104 178.217 35.104ZM205.54 34.144C205.252 34.144 205.012 34.096 204.82 34C204.66 33.936 204.58 33.808 204.58 33.616C204.58 33.36 204.692 33.184 204.916 33.088C205.172 32.992 205.428 32.912 205.684 32.848C206.356 32.688 206.868 32.496 207.22 32.272C207.572 32.016 207.748 31.6 207.748 31.024V20.608C207.748 19.744 207.588 18.976 207.268 18.304C206.98 17.632 206.42 17.232 205.588 17.104C205.428 17.072 205.3 17.008 205.204 16.912C205.14 16.816 205.108 16.672 205.108 16.48C205.108 16.128 205.252 15.936 205.54 15.904C206.82 15.616 207.876 15.232 208.708 14.752C209.54 14.24 210.164 13.824 210.58 13.504C210.868 13.28 211.092 13.168 211.252 13.168C211.444 13.168 211.54 13.248 211.54 13.408C211.54 13.664 211.492 14.176 211.396 14.944C211.332 15.68 211.268 16.512 211.204 17.44C211.14 18.336 211.108 19.152 211.108 19.888V31.024C211.108 31.568 211.284 31.968 211.636 32.224C212.02 32.48 212.532 32.688 213.172 32.848C213.428 32.912 213.668 32.992 213.892 33.088C214.148 33.184 214.276 33.36 214.276 33.616C214.276 33.968 213.956 34.144 213.316 34.144C212.708 34.144 212.212 34.112 211.828 34.048C211.476 34.016 211.124 33.984 210.772 33.952C210.452 33.92 210.004 33.904 209.428 33.904C208.884 33.904 208.436 33.92 208.084 33.952C207.732 33.984 207.38 34.016 207.028 34.048C206.676 34.112 206.18 34.144 205.54 34.144ZM209.38 9.232C208.708 9.232 208.132 9.008 207.652 8.56C207.204 8.08 206.98 7.504 206.98 6.832C206.98 6.128 207.204 5.552 207.652 5.104C208.132 4.624 208.708 4.384 209.38 4.384C210.084 4.384 210.66 4.624 211.108 5.104C211.588 5.552 211.828 6.128 211.828 6.832C211.828 7.504 211.588 8.08 211.108 8.56C210.66 9.008 210.084 9.232 209.38 9.232ZM227.466 34.672C225.898 34.672 224.666 34.192 223.77 33.232C222.906 32.272 222.474 30.848 222.474 28.96V17.824C222.474 17.568 222.378 17.392 222.186 17.296C221.994 17.168 221.578 17.104 220.938 17.104H220.65C220.49 17.104 220.346 17.008 220.218 16.816C220.122 16.592 220.074 16.368 220.074 16.144C220.074 16.08 220.122 15.984 220.218 15.856C220.314 15.728 220.378 15.648 220.41 15.616C221.05 15.168 221.626 14.72 222.138 14.272C222.682 13.824 223.162 13.392 223.578 12.976C224.026 12.528 224.394 12.128 224.682 11.776C224.842 11.616 224.97 11.488 225.066 11.392C225.194 11.264 225.338 11.2 225.498 11.2C225.658 11.2 225.802 11.232 225.93 11.296C226.09 11.36 226.154 11.504 226.122 11.728L225.882 13.888C225.85 14.24 225.93 14.48 226.122 14.608C226.314 14.736 226.618 14.8 227.034 14.8H232.506C232.634 14.8 232.746 14.912 232.842 15.136C232.938 15.328 232.986 15.568 232.986 15.856C232.986 16.144 232.938 16.432 232.842 16.72C232.746 16.976 232.634 17.104 232.506 17.104H227.754C226.954 17.104 226.426 17.168 226.17 17.296C225.946 17.424 225.834 17.808 225.834 18.448V27.904C225.834 29.184 226.106 30.192 226.65 30.928C227.194 31.664 227.978 32.032 229.002 32.032C229.93 32.032 230.65 31.968 231.162 31.84C231.674 31.68 232.138 31.456 232.554 31.168C232.618 31.104 232.682 31.072 232.746 31.072C232.874 31.072 232.954 31.152 232.986 31.312C233.05 31.44 233.082 31.584 233.082 31.744C233.082 31.904 232.81 32.224 232.266 32.704C231.754 33.184 231.066 33.632 230.202 34.048C229.37 34.464 228.458 34.672 227.466 34.672ZM238.56 34.144C237.92 34.144 237.6 33.968 237.6 33.616C237.6 33.328 237.968 33.072 238.704 32.848C239.184 32.688 239.632 32.48 240.048 32.224C240.496 31.968 240.736 31.52 240.768 30.88V6.832C240.768 5.968 240.624 5.216 240.336 4.576C240.048 3.904 239.488 3.504 238.656 3.376C238.368 3.312 238.224 3.088 238.224 2.704C238.224 2.416 238.352 2.224 238.608 2.128C239.056 1.968 239.584 1.792 240.192 1.6C240.832 1.408 241.488 1.2 242.16 0.975999C242.832 0.719998 243.424 0.479999 243.936 0.256C244.064 0.191998 244.16 0.159998 244.224 0.159998C244.32 0.159998 244.4 0.191998 244.464 0.256C244.528 0.319999 244.56 0.399999 244.56 0.495999C244.56 0.687999 244.512 0.959998 244.416 1.312C244.352 1.664 244.288 2.272 244.224 3.136C244.16 4 244.128 5.296 244.128 7.024V15.376C244.128 15.888 244.144 16.256 244.176 16.48C244.24 16.704 244.336 16.928 244.464 17.152C244.976 16.768 245.6 16.352 246.336 15.904C247.104 15.424 247.952 15.008 248.88 14.656C249.808 14.304 250.768 14.128 251.76 14.128C253.328 14.128 254.624 14.752 255.648 16C256.704 17.216 257.232 18.768 257.232 20.656V30.736C257.232 31.376 257.44 31.856 257.856 32.176C258.272 32.464 258.72 32.688 259.2 32.848C259.552 32.944 259.824 33.056 260.016 33.184C260.208 33.28 260.304 33.424 260.304 33.616C260.304 33.968 259.984 34.144 259.344 34.144C258.704 34.144 258.208 34.112 257.856 34.048C257.536 34.016 257.216 33.984 256.896 33.952C256.608 33.92 256.176 33.904 255.6 33.904C255.056 33.904 254.624 33.92 254.304 33.952C253.984 33.984 253.648 34.016 253.296 34.048C252.976 34.112 252.496 34.144 251.856 34.144C251.216 34.144 250.896 33.968 250.896 33.616C250.896 33.392 250.992 33.248 251.184 33.184C251.376 33.088 251.648 32.976 252 32.848C252.48 32.688 252.912 32.464 253.296 32.176C253.68 31.856 253.872 31.376 253.872 30.736V20.944C253.872 20.144 253.632 19.424 253.152 18.784C252.704 18.112 252.144 17.584 251.472 17.2C250.8 16.816 250.112 16.624 249.408 16.624C248.8 16.624 248.096 16.72 247.296 16.912C246.496 17.072 245.872 17.328 245.424 17.68C244.912 18.096 244.56 18.528 244.368 18.976C244.208 19.424 244.128 20.144 244.128 21.136V30.88C244.16 31.52 244.352 31.968 244.704 32.224C245.088 32.48 245.52 32.688 246 32.848C246.352 32.944 246.608 33.056 246.768 33.184C246.96 33.28 247.056 33.424 247.056 33.616C247.056 33.968 246.736 34.144 246.096 34.144C245.456 34.144 244.976 34.112 244.656 34.048C244.336 34.016 244.032 33.984 243.743 33.952C243.456 33.92 243.024 33.904 242.448 33.904C241.904 33.904 241.456 33.92 241.104 33.952C240.784 33.984 240.432 34.016 240.048 34.048C239.696 34.112 239.2 34.144 238.56 34.144ZM275.823 34.672C274.031 34.672 272.415 34.256 270.975 33.424C269.535 32.592 268.383 31.456 267.519 30.016C266.687 28.544 266.271 26.88 266.271 25.024C266.271 23.68 266.527 22.368 267.039 21.088C267.583 19.808 268.335 18.64 269.295 17.584C270.255 16.528 271.375 15.696 272.655 15.088C273.935 14.448 275.311 14.128 276.783 14.128C278.639 14.128 280.303 14.576 281.775 15.472C283.279 16.368 284.463 17.552 285.327 19.024C286.223 20.464 286.671 22.048 286.671 23.776C286.671 25.632 286.255 27.392 285.423 29.056C284.623 30.72 283.423 32.08 281.823 33.136C280.223 34.16 278.223 34.672 275.823 34.672ZM276.831 33.232C277.919 33.232 278.895 33.024 279.759 32.608C280.623 32.192 281.295 31.52 281.775 30.592C282.159 29.856 282.415 28.96 282.543 27.904C282.671 26.848 282.735 25.856 282.735 24.928C282.735 23.392 282.447 21.92 281.871 20.512C281.327 19.072 280.543 17.904 279.519 17.008C278.527 16.08 277.343 15.616 275.967 15.616C275.103 15.616 274.319 15.76 273.615 16.048C272.943 16.304 272.319 16.8 271.743 17.536C271.103 18.336 270.687 19.312 270.495 20.464C270.303 21.616 270.207 22.768 270.207 23.92C270.207 25.488 270.495 26.992 271.071 28.432C271.647 29.84 272.431 30.992 273.423 31.888C274.415 32.784 275.551 33.232 276.831 33.232ZM309.124 34.912C308.9 34.912 308.788 34.784 308.788 34.528C308.788 34.208 308.82 33.744 308.884 33.136C308.98 32.496 309.028 31.968 309.028 31.552C309.028 31.488 309.028 31.44 309.028 31.408C309.028 31.344 309.028 31.296 309.028 31.264C307.78 32.48 306.516 33.36 305.236 33.904C303.988 34.416 302.612 34.672 301.108 34.672C300.084 34.672 299.156 34.448 298.324 34C297.492 33.584 296.836 32.96 296.356 32.128C295.876 31.264 295.636 30.208 295.636 28.96V19.216C295.636 18.512 295.476 17.952 295.156 17.536C294.836 17.12 294.308 16.768 293.572 16.48C293.412 16.416 293.268 16.336 293.14 16.24C293.012 16.144 292.948 15.968 292.948 15.712C292.948 15.424 293.012 15.232 293.14 15.136C293.3 15.04 293.476 14.976 293.668 14.944C294.756 14.88 295.588 14.8 296.164 14.704C296.772 14.576 297.524 14.4 298.42 14.176C298.516 14.144 298.58 14.128 298.612 14.128C298.676 14.128 298.74 14.128 298.804 14.128C299.156 14.128 299.316 14.352 299.284 14.8C299.188 15.536 299.108 16.16 299.044 16.672C299.012 17.152 298.996 17.76 298.996 18.496V27.856C298.996 28.624 299.188 29.344 299.572 30.016C299.956 30.656 300.452 31.184 301.06 31.6C301.7 32.016 302.356 32.224 303.028 32.224C303.86 32.224 304.58 32.176 305.188 32.08C305.828 31.984 306.452 31.712 307.06 31.264C307.412 31.008 307.86 30.592 308.404 30.016C308.948 29.44 309.22 28.656 309.22 27.664V18.88C309.22 18.208 309.012 17.712 308.596 17.392C308.212 17.04 307.764 16.8 307.252 16.672C306.74 16.544 306.324 16.48 306.004 16.48C305.716 16.48 305.476 16.432 305.284 16.336C305.092 16.208 304.996 15.984 304.996 15.664C304.996 15.376 305.092 15.184 305.284 15.088C305.508 14.992 305.748 14.944 306.004 14.944C306.996 14.912 307.812 14.88 308.452 14.848C309.124 14.784 309.716 14.704 310.228 14.608C310.772 14.48 311.332 14.336 311.908 14.176C311.972 14.144 312.052 14.128 312.148 14.128C312.244 14.096 312.324 14.08 312.388 14.08C312.804 14.08 313.012 14.256 313.012 14.608C313.012 14.64 312.996 14.704 312.964 14.8C312.964 14.864 312.948 14.944 312.916 15.04C312.884 15.136 312.836 15.408 312.772 15.856C312.74 16.304 312.692 16.768 312.628 17.248C312.596 17.728 312.58 18.096 312.58 18.352V29.44C312.58 30.304 312.66 30.928 312.82 31.312C313.012 31.664 313.22 31.84 313.444 31.84C313.7 31.84 314.068 31.824 314.548 31.792C315.06 31.728 315.428 31.696 315.652 31.696C315.812 31.696 315.972 31.728 316.132 31.792C316.292 31.856 316.372 32.032 316.372 32.32C316.372 32.576 316.308 32.752 316.18 32.848C316.052 32.912 315.892 32.96 315.7 32.992C314.452 33.152 313.38 33.392 312.484 33.712C311.588 34.032 310.788 34.336 310.084 34.624C309.988 34.656 309.844 34.704 309.652 34.768C309.46 34.864 309.284 34.912 309.124 34.912ZM329.141 34.672C327.573 34.672 326.341 34.192 325.445 33.232C324.581 32.272 324.149 30.848 324.149 28.96V17.824C324.149 17.568 324.053 17.392 323.861 17.296C323.669 17.168 323.253 17.104 322.613 17.104H322.325C322.165 17.104 322.021 17.008 321.893 16.816C321.797 16.592 321.749 16.368 321.749 16.144C321.749 16.08 321.797 15.984 321.893 15.856C321.989 15.728 322.053 15.648 322.085 15.616C322.725 15.168 323.301 14.72 323.813 14.272C324.357 13.824 324.837 13.392 325.253 12.976C325.701 12.528 326.069 12.128 326.357 11.776C326.517 11.616 326.645 11.488 326.741 11.392C326.869 11.264 327.013 11.2 327.173 11.2C327.333 11.2 327.477 11.232 327.605 11.296C327.765 11.36 327.829 11.504 327.797 11.728L327.557 13.888C327.525 14.24 327.605 14.48 327.797 14.608C327.989 14.736 328.293 14.8 328.709 14.8H334.181C334.309 14.8 334.421 14.912 334.517 15.136C334.613 15.328 334.661 15.568 334.661 15.856C334.661 16.144 334.613 16.432 334.517 16.72C334.421 16.976 334.309 17.104 334.181 17.104H329.429C328.629 17.104 328.101 17.168 327.845 17.296C327.621 17.424 327.509 17.808 327.509 18.448V27.904C327.509 29.184 327.781 30.192 328.325 30.928C328.869 31.664 329.653 32.032 330.677 32.032C331.605 32.032 332.325 31.968 332.837 31.84C333.349 31.68 333.813 31.456 334.229 31.168C334.293 31.104 334.357 31.072 334.421 31.072C334.549 31.072 334.629 31.152 334.661 31.312C334.725 31.44 334.757 31.584 334.757 31.744C334.757 31.904 334.485 32.224 333.941 32.704C333.429 33.184 332.741 33.632 331.877 34.048C331.045 34.464 330.133 34.672 329.141 34.672ZM353.044 34.144C352.884 34.144 352.676 34.112 352.42 34.048C352.196 34.016 352.084 33.904 352.084 33.712C352.084 33.456 352.196 33.28 352.42 33.184C352.676 33.056 352.932 32.944 353.188 32.848C353.668 32.688 354.132 32.512 354.58 32.32C355.028 32.096 355.252 31.664 355.252 31.024V6.832C355.252 5.904 355.076 5.136 354.724 4.528C354.404 3.888 353.844 3.488 353.044 3.328C352.788 3.264 352.66 3.056 352.66 2.704C352.66 2.384 352.772 2.192 352.996 2.128C353.828 1.936 354.548 1.744 355.156 1.552C355.764 1.328 356.324 1.104 356.836 0.879997C357.38 0.655998 357.908 0.447999 358.42 0.256C358.548 0.191998 358.644 0.159998 358.708 0.159998C358.772 0.159998 358.82 0.207998 358.852 0.303999C358.916 0.367998 358.948 0.431998 358.948 0.495999C358.948 0.783999 358.884 1.408 358.756 2.368C358.66 3.296 358.612 4.848 358.612 7.024V31.024C358.612 31.664 358.836 32.096 359.284 32.32C359.732 32.512 360.196 32.688 360.676 32.848C360.932 32.944 361.172 33.056 361.396 33.184C361.652 33.28 361.78 33.456 361.78 33.712C361.78 33.904 361.652 34.016 361.396 34.048C361.172 34.112 360.98 34.144 360.82 34.144C360.212 34.144 359.716 34.112 359.332 34.048C358.98 34.016 358.628 33.984 358.276 33.952C357.956 33.92 357.508 33.904 356.932 33.904C356.388 33.904 355.94 33.92 355.588 33.952C355.236 33.984 354.884 34.016 354.532 34.048C354.18 34.112 353.684 34.144 353.044 34.144ZM371.519 34.672C370.943 34.672 370.351 34.448 369.743 34C369.167 33.552 368.671 33.008 368.255 32.368C367.871 31.728 367.679 31.12 367.679 30.544C367.679 29.52 367.951 28.72 368.495 28.144C369.039 27.568 369.903 27.04 371.087 26.56L375.983 24.544C376.623 24.288 376.991 24.064 377.087 23.872C377.215 23.68 377.295 23.264 377.327 22.624L377.423 19.552C377.455 18.72 377.215 18 376.703 17.392C376.223 16.784 375.519 16.48 374.591 16.48C374.111 16.48 373.631 16.56 373.151 16.72C372.671 16.88 372.271 17.088 371.951 17.344C371.759 17.472 371.631 17.664 371.567 17.92C371.503 18.176 371.471 18.448 371.471 18.736C371.471 18.864 371.471 19.008 371.471 19.168C371.503 19.328 371.519 19.472 371.519 19.6C371.519 19.76 371.311 19.984 370.895 20.272C370.511 20.528 370.063 20.768 369.551 20.992C369.071 21.184 368.671 21.28 368.351 21.28C368.191 21.28 368.063 21.248 367.967 21.184C367.871 21.088 367.823 20.976 367.823 20.848C367.823 20.336 367.983 19.792 368.303 19.216C368.655 18.608 369.135 18.048 369.743 17.536C370.479 16.864 371.279 16.272 372.143 15.76C373.007 15.248 373.855 14.848 374.687 14.56C375.519 14.272 376.255 14.128 376.895 14.128C378.047 14.128 378.991 14.544 379.727 15.376C380.495 16.176 380.863 17.184 380.831 18.4L380.591 29.92C380.559 30.592 380.703 31.136 381.023 31.552C381.375 31.968 381.807 32.176 382.319 32.176C383.119 32.176 383.711 32 384.095 31.648C384.255 31.488 384.383 31.408 384.479 31.408C384.639 31.408 384.767 31.456 384.863 31.552C384.959 31.648 385.007 31.776 385.007 31.936C385.007 32.288 384.831 32.64 384.479 32.992C383.967 33.504 383.407 33.904 382.799 34.192C382.223 34.512 381.679 34.672 381.167 34.672C379.695 34.672 378.527 33.84 377.663 32.176H377.519C376.463 33.04 375.455 33.664 374.495 34.048C373.535 34.464 372.543 34.672 371.519 34.672ZM373.775 32.368C374.415 32.368 374.959 32.272 375.407 32.08C375.855 31.856 376.255 31.568 376.607 31.216C376.767 31.056 376.895 30.848 376.991 30.592C377.119 30.304 377.199 29.856 377.231 29.248L377.327 26.896C377.359 26.544 377.343 26.288 377.279 26.128C377.215 25.968 377.087 25.888 376.895 25.888C376.831 25.888 376.719 25.904 376.559 25.936C376.399 25.968 376.191 26.032 375.935 26.128C374.239 26.736 373.055 27.376 372.383 28.048C371.743 28.688 371.423 29.28 371.423 29.824C371.423 30.656 371.663 31.296 372.143 31.744C372.655 32.16 373.199 32.368 373.775 32.368ZM400.707 34.672C400.003 34.672 399.299 34.608 398.595 34.48C397.891 34.352 397.219 34.208 396.579 34.048C395.875 33.856 395.251 33.68 394.707 33.52C394.195 33.36 393.859 33.28 393.699 33.28C393.507 33.28 393.315 33.344 393.123 33.472C392.963 33.6 392.803 33.744 392.643 33.904C392.483 34.064 392.339 34.144 392.211 34.144C392.083 34.144 391.939 34.096 391.779 34C391.619 33.872 391.539 33.728 391.539 33.568C391.539 33.28 391.587 32.784 391.683 32.08C391.811 31.376 391.875 30.72 391.875 30.112V6.832C391.875 6 391.667 5.28 391.251 4.672C390.835 4.064 390.307 3.616 389.667 3.328C389.539 3.264 389.395 3.184 389.235 3.088C389.107 2.96 389.043 2.8 389.043 2.608C389.043 2.448 389.107 2.336 389.235 2.272C389.363 2.208 389.491 2.16 389.619 2.128C390.035 2.032 390.595 1.856 391.299 1.6C392.035 1.344 392.723 1.088 393.363 0.831998C394.003 0.575997 394.435 0.399998 394.659 0.303999C394.851 0.207998 394.995 0.159998 395.091 0.159998C395.155 0.159998 395.219 0.191998 395.283 0.256C395.347 0.319999 395.379 0.399999 395.379 0.495999C395.379 0.624 395.347 1.168 395.283 2.128C395.251 3.056 395.235 4.192 395.235 5.536V15.376C395.235 15.984 395.267 16.4 395.331 16.624C395.395 16.816 395.507 16.928 395.667 16.96C396.659 16.128 397.811 15.456 399.123 14.944C400.435 14.4 401.619 14.128 402.675 14.128C404.307 14.128 405.763 14.544 407.043 15.376C408.355 16.208 409.395 17.344 410.163 18.784C410.931 20.192 411.315 21.792 411.315 23.584C411.315 25.76 410.867 27.696 409.971 29.392C409.075 31.056 407.827 32.352 406.227 33.28C404.659 34.208 402.819 34.672 400.707 34.672ZM401.811 33.184C403.027 33.184 404.067 32.816 404.931 32.08C405.827 31.312 406.515 30.288 406.995 29.008C407.475 27.696 407.715 26.24 407.715 24.64C407.715 23.392 407.475 22.112 406.995 20.8C406.547 19.488 405.827 18.384 404.835 17.488C403.875 16.592 402.627 16.144 401.091 16.144C399.811 16.144 398.691 16.352 397.731 16.768C396.771 17.184 395.939 17.712 395.235 18.352V27.664C395.235 28.784 395.539 29.76 396.147 30.592C396.787 31.424 397.603 32.064 398.595 32.512C399.619 32.96 400.691 33.184 401.811 33.184ZM426.402 34.72C424.642 34.72 423.106 34.288 421.794 33.424C420.482 32.56 419.458 31.344 418.722 29.776C417.986 28.176 417.618 26.336 417.618 24.256C417.618 22.4 418.034 20.72 418.866 19.216C419.73 17.68 420.866 16.448 422.274 15.52C423.682 14.592 425.218 14.128 426.882 14.128C428.162 14.128 429.298 14.384 430.29 14.896C431.282 15.408 432.05 16.128 432.594 17.056C433.17 17.952 433.458 18.992 433.458 20.176C433.458 21.168 432.978 21.664 432.018 21.664H421.89C421.442 21.664 421.122 21.792 420.93 22.048C420.77 22.272 420.69 22.736 420.69 23.44C420.69 24.976 421.026 26.384 421.698 27.664C422.37 28.912 423.266 29.92 424.386 30.688C425.506 31.424 426.738 31.792 428.082 31.792C429.042 31.792 429.906 31.616 430.674 31.264C431.474 30.88 432.178 30.336 432.786 29.632C432.914 29.472 433.01 29.376 433.074 29.344C433.138 29.28 433.218 29.248 433.314 29.248C433.57 29.248 433.698 29.408 433.698 29.728C433.698 30.336 433.41 31.008 432.834 31.744C432.354 32.352 431.778 32.88 431.106 33.328C430.434 33.776 429.698 34.112 428.898 34.336C428.098 34.592 427.266 34.72 426.402 34.72ZM421.986 20.176H426.354C427.122 20.176 427.778 20.16 428.322 20.128C428.866 20.096 429.394 20.032 429.906 19.936C430.066 19.904 430.162 19.808 430.194 19.648C430.258 19.456 430.29 19.2 430.29 18.88C430.29 17.952 429.874 17.168 429.042 16.528C428.242 15.856 427.282 15.52 426.162 15.52C425.426 15.52 424.69 15.744 423.954 16.192C423.218 16.608 422.61 17.136 422.13 17.776C421.65 18.416 421.41 19.056 421.41 19.696C421.41 20.016 421.602 20.176 421.986 20.176ZM439.953 34.144C439.793 34.144 439.585 34.112 439.329 34.048C439.105 34.016 438.993 33.904 438.993 33.712C438.993 33.456 439.105 33.28 439.329 33.184C439.585 33.056 439.841 32.944 440.097 32.848C440.577 32.688 441.041 32.512 441.489 32.32C441.937 32.096 442.161 31.664 442.161 31.024V6.832C442.161 5.904 441.985 5.136 441.633 4.528C441.313 3.888 440.753 3.488 439.953 3.328C439.697 3.264 439.569 3.056 439.569 2.704C439.569 2.384 439.681 2.192 439.905 2.128C440.737 1.936 441.457 1.744 442.065 1.552C442.673 1.328 443.233 1.104 443.745 0.879997C444.289 0.655998 444.817 0.447999 445.329 0.256C445.457 0.191998 445.553 0.159998 445.617 0.159998C445.681 0.159998 445.729 0.207998 445.761 0.303999C445.825 0.367998 445.857 0.431998 445.857 0.495999C445.857 0.783999 445.793 1.408 445.665 2.368C445.569 3.296 445.521 4.848 445.521 7.024V31.024C445.521 31.664 445.745 32.096 446.193 32.32C446.641 32.512 447.105 32.688 447.585 32.848C447.841 32.944 448.081 33.056 448.305 33.184C448.561 33.28 448.689 33.456 448.689 33.712C448.689 33.904 448.561 34.016 448.305 34.048C448.081 34.112 447.889 34.144 447.729 34.144C447.121 34.144 446.625 34.112 446.241 34.048C445.889 34.016 445.537 33.984 445.185 33.952C444.865 33.92 444.417 33.904 443.841 33.904C443.297 33.904 442.849 33.92 442.497 33.952C442.145 33.984 441.793 34.016 441.441 34.048C441.089 34.112 440.593 34.144 439.953 34.144ZM459.725 34.672C458.733 34.672 457.805 34.512 456.941 34.192C456.077 33.904 455.341 33.488 454.733 32.944C454.573 32.592 454.445 32 454.349 31.168C454.285 30.336 454.237 29.648 454.205 29.104C454.205 28.816 454.413 28.672 454.829 28.672C454.957 28.672 455.069 28.704 455.165 28.768C455.293 28.8 455.373 28.88 455.405 29.008C455.821 30.576 456.477 31.696 457.373 32.368C458.301 33.04 459.229 33.376 460.157 33.376C461.085 33.376 461.869 33.072 462.509 32.464C463.181 31.824 463.517 31.04 463.517 30.112C463.517 29.248 463.229 28.512 462.653 27.904C462.077 27.264 461.069 26.496 459.629 25.6C458.541 24.928 457.661 24.288 456.989 23.68C456.317 23.072 455.821 22.448 455.501 21.808C455.213 21.168 455.069 20.448 455.069 19.648C455.069 18.624 455.309 17.696 455.789 16.864C456.269 16.032 456.989 15.376 457.949 14.896C458.909 14.384 460.109 14.128 461.549 14.128C462.509 14.128 463.309 14.224 463.949 14.416C464.589 14.608 465.069 14.816 465.389 15.04C465.645 15.392 465.853 15.952 466.013 16.72C466.205 17.456 466.301 18.16 466.301 18.832C466.301 19.056 466.141 19.168 465.821 19.168C465.629 19.168 465.437 19.136 465.245 19.072C465.085 18.976 464.973 18.864 464.909 18.736C464.493 17.68 463.965 16.88 463.325 16.336C462.717 15.76 461.949 15.472 461.021 15.472C460.221 15.472 459.501 15.712 458.861 16.192C458.253 16.672 457.949 17.376 457.949 18.304C457.949 19.04 458.173 19.696 458.621 20.272C459.101 20.848 459.981 21.504 461.261 22.24C463.117 23.296 464.493 24.288 465.389 25.216C466.317 26.112 466.781 27.312 466.781 28.816C466.781 30.544 466.125 31.952 464.812 33.04C463.501 34.128 461.805 34.672 459.725 34.672ZM477.048 34.672C476.344 34.672 475.72 34.416 475.176 33.904C474.664 33.36 474.408 32.736 474.408 32.032C474.408 31.296 474.664 30.672 475.176 30.16C475.72 29.648 476.344 29.392 477.048 29.392C477.784 29.392 478.408 29.648 478.92 30.16C479.432 30.672 479.688 31.296 479.688 32.032C479.688 32.736 479.432 33.36 478.92 33.904C478.408 34.416 477.784 34.672 477.048 34.672Z" fill="black"/>
</svg>
